<svg xmlns="http://www.w3.org/2000/svg" viewBox="0 0 48 48">
    <path fill="currentColor" fill-rule="evenodd"
        d="M28.034,19.63c1.576,1.126,3.507,1.788,5.592,1.788v-3.157 c-1.164-0.248-2.194-0.856-2.969-1.701c-1.326-0.827-2.281-2.191-2.561-3.788h-2.923v16.018c-0.007,1.867-1.523,3.379-3.393,3.379 c-1.102,0-2.081-0.525-2.701-1.338c-1.107-0.558-1.866-1.705-1.866-3.029c0-1.873,1.519-3.391,3.393-3.391 c0.359,0,0.705,0.056,1.03,0.159V21.38c-4.024,0.083-7.26,3.369-7.26,7.411c0,2.018,0.806,3.847,2.114,5.183 c1.18,0.792,2.601,1.254,4.129,1.254c4.096,0,7.417-3.319,7.417-7.413L28.034,19.63L28.034,19.63z"
        clip-rule="evenodd"></path>
</svg>